# xmcd CD database file
#
# Track frame offsets:
#	150
#	20525
#	44002
#	69399
#	99707
#	128004
#	146001
#	184322
#	212857
#	242487
#
# Disc length: 3709 seconds
#
# Revision: 0
# Processed by: cddbd v1.5.2PL0 Copyright (c) Steve Scherf et al.
# Submitted via: CDex 1.51
#
DISCID=940e7b0a
DTITLE=Ken Peplowski - noir blue
DYEAR=2010
DGENRE=Jazz
TTITLE0=The Best Thing For You
TTITLE1=Home With You
TTITLE2=Bourbon Street Jingling Jollies
TTITLE3=Riverboat Shuffle
TTITLE4=Love Locked Out
TTITLE5=If Not For You
TTITLE6=Multi-Colored Blue
TTITLE7=Noir Blue
TTITLE8=Nobody Else But Me
TTITLE9=Little Dogs
EXTD=YEAR: 2010
EXTT0=
EXTT1=
EXTT2=
EXTT3=
EXTT4=
EXTT5=
EXTT6=
EXTT7=
EXTT8=
EXTT9=
PLAYORDER=
